{"title":"The Eagle 2011 TS XViD SAFCuk009 {DragonTrG}","uid":6186703,"size":1319981182,"categoryP":"video","categoryS":"movies","magnet":"?xt=urn:btih:3c3aca7a4e2c56aef16eeab76c98fdd118a4c465&amp;dn=The+Eagle+2011+TS+XViD+SAFCuk009+%7BDragonTrG%7D&amp;tr=udp%3A%2F%2Ftracker.openbittorrent.com%3A80&amp;tr=udp%3A%2F%2Fopen.demonii.com%3A1337&amp;tr=udp%3A%2F%2Ftracker.coppersurfer.tk%3A6969&amp;tr=udp%3A%2F%2Fexodus.desync.com%3A6969","seeders":0,"leechers":1,"uploader":"SAFCukO09","files":3,"time":1298131755,"description":"Format : AVI\nFormat/Info : Audio Video Interleave\nFile size : 1.23 GiB\nDuration : 1h 45mn\nOverall bit rate : 1 675 Kbps\nWriting library : VirtualDub build 32839/release\n\nVideo\nID : 0\nFormat : MPEG-4 Visual\nFormat profile : Advanced Simple@L5\nFormat settings, BVOP : Yes\nFormat settings, QPel : No\nFormat settings, GMC : No warppoints\nFormat settings, Matrix : Custom\nCodec ID : XVID\nCodec ID/Hint : XviD\nDuration : 1h 45mn\nBit rate : 1 473 Kbps\nWidth : 720 pixels\nHeight : 304 pixels\nDisplay aspect ratio : 2.35:1\nFrame rate : 25.000 fps\nColor space : YUV\nChroma subsampling : 4:2:0\nBit depth : 8 bits\nScan type : Progressive\nBits/(Pixel*Frame) : 0.269\nStream size : 1.08 GiB (88%)\nWriting library : XviD 1.2.1 (UTC 2008-12-04)\n\nAudio\nID : 1\nFormat : MPEG Audio\nFormat version : Version 1\nFormat profile : Layer 3\nCodec ID : 55\nCodec ID/Hint : MP3\nDuration : 1h 45mn\nBit rate mode : Constant\nBit rate : 192 Kbps\nChannel(s) : 2 channels\nSampling rate : 44.1 KHz\nStream size : 144 MiB (11%)\nAlignment : Split accross interleaves\nInterleave, duration : 40 ms (1.00 video frame)\nInterleave, preload duration : 500 ms\n\n\n\n &lt;a href=&quot;\nhttp://www.imdb.com/title/tt1034389/&quot; rel=&quot;nofollow&quot; target=&quot;_NEW&quot;&gt;\nhttp://www.imdb.com/title/tt1034389/&lt;/a&gt;\n\n\n\n\n\nStoryline\n\nIn 140 AD, twenty years after the unexplained disappearance of the entire Ninth Legion in the mountains of Scotland, young centurion Marcus Aquila (Tatum) arrives from Rome to solve the mystery and restore the reputation of his father, the commander of the Ninth. Accompanied only by his British slave Esca (Bell), Marcus sets out across Hadrian's Wall into the uncharted highlands of Caledonia - to confront its savage tribes, make peace with his father's memory, and retrieve the lost legion's golden emblem, the Eagle of the Ninth.\n\nUsers: 6.4/10 (1,240 votes) 24 reviews | Critics: 57 reviews Metascore: 56/100 (based on 34 reviews from Metacritic.com)\n\n\nDirector:\nKevin Macdonald\nWriters:\nJeremy Brock , Rosemary Sutcliff (novel)\nStars:\nChanning Tatum, Jamie Bell and Donald Sutherland\n","torrent":{"xt":"urn:btih:3c3aca7a4e2c56aef16eeab76c98fdd118a4c465","amp;dn":"The+Eagle+2011+TS+XViD+SAFCuk009+%7BDragonTrG%7D","amp;tr":["udp%3A%2F%2Ftracker.openbittorrent.com%3A80","udp%3A%2F%2Fopen.demonii.com%3A1337","udp%3A%2F%2Ftracker.coppersurfer.tk%3A6969","udp%3A%2F%2Fexodus.desync.com%3A6969"],"infoHash":"3c3aca7a4e2c56aef16eeab76c98fdd118a4c465","infoHashBuffer":{"type":"Buffer","data":[60,58,202,122,78,44,86,174,241,110,234,183,108,152,253,209,24,164,196,101]},"announce":[],"urlList":[]}}